name rise34.3697peak60.0498fall86.3158.mot
datacolumns 19
datarows 32
range 5.48331500000000 5.53497800000000
endheader
time	ground_force1_vx	ground_force1_vy	ground_force1_vz	ground_force1_px	ground_force1_py	ground_force1_pz	ground_force2_vx	ground_force2_vy	ground_force2_vz	ground_force2_px	ground_force2_py	ground_force2_pz	ground_torque1_x	ground_torque1_y	ground_torque1_z	ground_torque2_x	ground_torque2_y	ground_torque2_z	
5.48331500000000	-8.00527000000000	46.50087600000000	-11.75574900000000	0.47341900000000	0.00000000000000	0.06418500000000	-57.22478900000000	802.36660600000005	-54.14703200000000	0.21030400000000	0.00000000000000	-0.09645600000000	0.00000000000000	-11.37747200000000	0.00000000000000	0.00000000000000	-30.04737300000000	0.00000000000000	
5.48498000000000	-8.59315700000000	53.03383900000000	-12.94257300000000	0.47191700000000	0.00000000000000	0.06534600000000	-57.55195100000000	798.71853999999996	-53.71925300000000	0.20948000000000	0.00000000000000	-0.09643300000000	0.00000000000000	-12.51088600000000	0.00000000000000	0.00000000000000	-29.86467200000000	0.00000000000000	
5.48664900000000	-9.02666600000000	59.47496900000000	-13.98515800000000	0.47059300000000	0.00000000000000	0.06642300000000	-57.89068200000000	794.96011299999998	-53.27204300000000	0.20864400000000	0.00000000000000	-0.09640800000000	0.00000000000000	-13.50868500000000	0.00000000000000	0.00000000000000	-29.67986700000000	0.00000000000000	
5.48831500000000	-9.29344900000000	65.75981700000000	-14.86565600000000	0.46943200000000	0.00000000000000	0.06742600000000	-58.24093700000000	791.09187899999995	-52.80542000000000	0.20779400000000	0.00000000000000	-0.09638000000000	0.00000000000000	-14.35559700000000	0.00000000000000	0.00000000000000	-29.49303700000000	0.00000000000000	
5.48997500000000	-9.38897900000000	71.85033100000000	-15.57567000000000	0.46841900000000	0.00000000000000	0.06836200000000	-58.60259200000000	787.11429599999997	-52.31941500000000	0.20693300000000	0.00000000000000	-0.09635000000000	0.00000000000000	-15.04522400000000	0.00000000000000	0.00000000000000	-29.30425000000000	0.00000000000000	
5.49164800000000	-9.31584000000000	77.73409800000000	-16.11557000000000	0.46754300000000	0.00000000000000	0.06923900000000	-58.97544400000000	783.02772300000004	-51.81407200000000	0.20605900000000	0.00000000000000	-0.09631800000000	0.00000000000000	-15.57931700000000	0.00000000000000	0.00000000000000	-29.11356000000000	0.00000000000000	
5.49332600000000	-9.08256100000000	83.42160699999999	-16.49320600000000	0.46679200000000	0.00000000000000	0.07006300000000	-59.35920400000000	778.83242199999995	-51.28944600000000	0.20517200000000	0.00000000000000	-0.09628300000000	0.00000000000000	-15.96650400000000	0.00000000000000	0.00000000000000	-28.92101100000000	0.00000000000000	
5.49498300000000	-8.70216500000000	88.94209300000000	-16.72223900000000	0.46615700000000	0.00000000000000	0.07083900000000	-59.75349900000000	774.52855299999999	-50.74560900000000	0.20427400000000	0.00000000000000	-0.09624500000000	0.00000000000000	-16.22067700000000	0.00000000000000	0.00000000000000	-28.72663300000000	0.00000000000000	
5.49664300000000	-8.19060500000000	94.33856200000000	-16.82027200000000	0.46562900000000	0.00000000000000	0.07157100000000	-60.15787200000000	770.11617699999999	-50.18264600000000	0.20336500000000	0.00000000000000	-0.09620400000000	0.00000000000000	-16.35922700000000	0.00000000000000	0.00000000000000	-28.53044600000000	0.00000000000000	
5.49830800000000	-7.56523300000000	99.66253900000000	-16.80699500000000	0.46520000000000	0.00000000000000	0.07226300000000	-60.57177800000000	765.59525599999995	-49.60066200000000	0.20244400000000	0.00000000000000	-0.09616100000000	0.00000000000000	-16.40129100000000	0.00000000000000	0.00000000000000	-28.33245500000000	0.00000000000000	
5.49997700000000	-6.84342000000000	104.96903200000000	-16.70247000000000	0.46486200000000	0.00000000000000	0.07291900000000	-60.99458400000000	760.96565599999997	-48.99977800000000	0.20151300000000	0.00000000000000	-0.09611400000000	0.00000000000000	-16.36616700000000	0.00000000000000	0.00000000000000	-28.13265700000000	0.00000000000000	
5.50164500000000	-6.04141300000000	110.31205400000000	-16.52568700000000	0.46461100000000	0.00000000000000	0.07354200000000	-61.42557400000000	756.22714800000006	-48.38013700000000	0.20057300000000	0.00000000000000	-0.09606500000000	0.00000000000000	-16.27197800000000	0.00000000000000	0.00000000000000	-27.93103500000000	0.00000000000000	
5.50331500000000	-5.17347800000000	115.74097600000000	-16.29344600000000	0.46443900000000	0.00000000000000	0.07413300000000	-61.86393900000000	751.37941000000001	-47.74190400000000	0.19962200000000	0.00000000000000	-0.09601200000000	0.00000000000000	-16.13464500000000	0.00000000000000	0.00000000000000	-27.72756100000000	0.00000000000000	
5.50497500000000	-4.25134300000000	121.29783800000000	-16.01960100000000	0.46434000000000	0.00000000000000	0.07469600000000	-62.30879000000000	746.42203800000004	-47.08526300000000	0.19866300000000	0.00000000000000	-0.09595600000000	0.00000000000000	-15.96721200000000	0.00000000000000	0.00000000000000	-27.52219500000000	0.00000000000000	
5.50664300000000	-3.28393500000000	127.01565800000000	-15.71465900000000	0.46431000000000	0.00000000000000	0.07523200000000	-62.75914600000000	741.35453900000005	-46.41042900000000	0.19769600000000	0.00000000000000	-0.09589700000000	0.00000000000000	-15.77949000000000	0.00000000000000	0.00000000000000	-27.31488600000000	0.00000000000000	
5.50831000000000	-2.27737200000000	132.91768300000001	-15.38569700000000	0.46434400000000	0.00000000000000	0.07574200000000	-63.21394500000000	736.17634999999996	-45.71763700000000	0.19672100000000	0.00000000000000	-0.09583500000000	0.00000000000000	-15.57800400000000	0.00000000000000	0.00000000000000	-27.10557500000000	0.00000000000000	
5.50997600000000	-1.23517100000000	139.01747300000000	-15.03655000000000	0.46443700000000	0.00000000000000	0.07623000000000	-63.67204100000000	730.88683300000002	-45.00715500000000	0.19573900000000	0.00000000000000	-0.09577000000000	0.00000000000000	-15.36619000000000	0.00000000000000	0.00000000000000	-26.89419000000000	0.00000000000000	
5.51165000000000	-0.15861300000000	145.31965400000001	-14.66821100000000	0.46458500000000	0.00000000000000	0.07669500000000	-64.13220699999999	725.48529099999996	-44.27927600000000	0.19475100000000	0.00000000000000	-0.09570100000000	0.00000000000000	-15.14477700000000	0.00000000000000	0.00000000000000	-26.68065000000000	0.00000000000000	
5.51331600000000	0.95279100000000	151.82116199999999	-14.27936000000000	0.46478300000000	0.00000000000000	0.07713900000000	-64.59313600000000	719.97097299999996	-43.53432600000000	0.19375800000000	0.00000000000000	-0.09562900000000	0.00000000000000	-14.91230000000000	0.00000000000000	0.00000000000000	-26.46486400000000	0.00000000000000	
5.51497900000000	2.10078200000000	158.51279500000001	-13.86698000000000	0.46502800000000	0.00000000000000	0.07756300000000	-65.05344599999999	714.34308399999998	-42.77266200000000	0.19276100000000	0.00000000000000	-0.09555300000000	0.00000000000000	-14.66567800000000	0.00000000000000	0.00000000000000	-26.24673200000000	0.00000000000000	
5.51664800000000	3.28783700000000	165.38089900000000	-13.42697100000000	0.46531500000000	0.00000000000000	0.07796800000000	-65.51167900000000	708.60079599999995	-41.99467400000000	0.19176000000000	0.00000000000000	-0.09547300000000	0.00000000000000	-14.40079700000000	0.00000000000000	0.00000000000000	-26.02614700000000	0.00000000000000	
5.51831700000000	4.51669000000000	172.40903700000001	-12.95474600000000	0.46564200000000	0.00000000000000	0.07835600000000	-65.96631100000000	702.74326199999996	-41.20078700000000	0.19075600000000	0.00000000000000	-0.09539000000000	0.00000000000000	-14.11307000000000	0.00000000000000	0.00000000000000	-25.80299300000000	0.00000000000000	
5.51998000000000	5.78992400000000	179.57952399999999	-12.44574800000000	0.46600500000000	0.00000000000000	0.07872600000000	-66.41574900000001	696.76962600000002	-40.39145900000000	0.18975000000000	0.00000000000000	-0.09530300000000	0.00000000000000	-13.79792200000000	0.00000000000000	0.00000000000000	-25.57714700000000	0.00000000000000	
5.52164900000000	7.10963300000000	186.87473700000001	-11.89587100000000	0.46640000000000	0.00000000000000	0.07908000000000	-66.85833800000000	690.67904099999998	-39.56718600000000	0.18874300000000	0.00000000000000	-0.09521300000000	0.00000000000000	-13.45118400000000	0.00000000000000	0.00000000000000	-25.34847700000000	0.00000000000000	
5.52330900000000	8.47719400000000	194.27814799999999	-11.30177500000000	0.46682500000000	0.00000000000000	0.07941800000000	-67.29236600000000	684.47068000000002	-38.72849700000000	0.18773600000000	0.00000000000000	-0.09511900000000	0.00000000000000	-13.06939500000000	0.00000000000000	0.00000000000000	-25.11684800000000	0.00000000000000	
5.52498000000000	9.89312200000000	201.77506500000001	-10.66108700000000	0.46727600000000	0.00000000000000	0.07974100000000	-67.71606600000000	678.14375399999994	-37.87596100000000	0.18672900000000	0.00000000000000	-0.09502100000000	0.00000000000000	-12.64998400000000	0.00000000000000	0.00000000000000	-24.88211800000000	0.00000000000000	
5.52664300000000	11.35700800000000	209.35307000000000	-9.97250400000000	0.46775000000000	0.00000000000000	0.08004900000000	-68.12762499999999	671.69752700000004	-37.01018100000000	0.18572500000000	0.00000000000000	-0.09491900000000	0.00000000000000	-12.19137200000000	0.00000000000000	0.00000000000000	-24.64413900000000	0.00000000000000	
5.52830900000000	12.86753500000000	217.00220200000001	-9.23579600000000	0.46824500000000	0.00000000000000	0.08034300000000	-68.52518600000001	665.13133200000004	-36.13179700000000	0.18472300000000	0.00000000000000	-0.09481300000000	0.00000000000000	-11.69297800000000	0.00000000000000	0.00000000000000	-24.40276000000000	0.00000000000000	
5.52998300000000	14.42255400000000	224.71489500000001	-8.45174300000000	0.46875700000000	0.00000000000000	0.08062300000000	-68.90685300000000	658.44458899999995	-35.24148700000000	0.18372500000000	0.00000000000000	-0.09470300000000	0.00000000000000	-11.15515400000000	0.00000000000000	0.00000000000000	-24.15782600000000	0.00000000000000	
5.53164600000000	16.01919600000000	232.48576100000000	-7.62200900000000	0.46928500000000	0.00000000000000	0.08089000000000	-69.27069899999999	651.63681399999996	-34.33996300000000	0.18273200000000	0.00000000000000	-0.09458900000000	0.00000000000000	-10.57908100000000	0.00000000000000	0.00000000000000	-23.90917700000000	0.00000000000000	
5.53331200000000	17.65401100000000	240.31122800000000	-6.74899200000000	0.46982500000000	0.00000000000000	0.08114500000000	-69.61477100000000	644.70763999999997	-33.42797500000000	0.18174400000000	0.00000000000000	-0.09447100000000	0.00000000000000	-9.96661800000000	0.00000000000000	0.00000000000000	-23.65665500000000	0.00000000000000	
5.53497800000000	19.32312100000000	248.18912300000000	-5.83564300000000	0.47037500000000	0.00000000000000	0.08138600000000	-69.93709600000000	637.65682400000003	-32.50630700000000	0.18076300000000	0.00000000000000	-0.09434900000000	0.00000000000000	-9.32014300000000	0.00000000000000	0.00000000000000	-23.40009600000000	0.00000000000000	
